<svg height='200' width='200'  fill="#000000" xmlns="http://www.w3.org/2000/svg" xmlns:xlink="http://www.w3.org/1999/xlink" version="1.1" x="0px" y="0px" viewBox="0 0 100 100" enable-background="new 0 0 100 100" xml:space="preserve"><g><path d="M89.721,26.201L50.75,3.701c-0.464-0.269-1.036-0.269-1.5,0l-38.971,22.5c-0.464,0.268-0.75,0.763-0.75,1.299v45   c0,0.536,0.286,1.031,0.75,1.299l38.971,22.5C49.482,96.434,49.741,96.5,50,96.5s0.518-0.066,0.75-0.201l38.971-22.5   c0.465-0.268,0.75-0.763,0.75-1.299v-45C90.471,26.964,90.186,26.469,89.721,26.201z M48,50.577L12.529,71.057V30.098L48,50.577z    M48.5,51.443v40.959L13.029,71.923L48.5,51.443z M51.5,51.443l35.471,20.479L51.5,92.402V51.443z M52,50.578l35.471-20.479v40.959   L52,50.578z M85.971,27.5L50.5,47.98V7.021L85.971,27.5z M49.5,7.021V47.98L14.029,27.5L49.5,7.021z"></path></g></svg>